<?xml version="1.0" encoding="utf-8"?>
<!-- Generator: Adobe Illustrator 23.0.3, SVG Export Plug-In . SVG Version: 6.00 Build 0)  -->
<svg version="1.1" xmlns="http://www.w3.org/2000/svg" xmlns:xlink="http://www.w3.org/1999/xlink" x="0px" y="0px"
	 viewBox="0 0 1600 1200" style="enable-background:new 0 0 1600 1200;" xml:space="preserve">
<style type="text/css">
	.st0{fill:#E8E8E8;}
	.st1{fill:#5222D0;}
	.st2{fill:#EC615B;}
	.st3{fill:#FFFFFF;stroke:#161616;stroke-width:3;stroke-miterlimit:10;}
	.st4{fill:#FFFFFF;}
	.st5{opacity:0.11;fill:#898989;}
	.st6{fill:#161616;}
	.st7{opacity:0.11;fill:#999999;}
	.st8{opacity:0.14;fill:#969595;}
	.st9{opacity:0.15;fill:#7A7A7A;}
	.st10{opacity:0.21;fill:#757575;}
</style>
<g id="background">
	<g>
		<g>
			<path class="st0" d="M224,629.6c21.6,0,43.2,0,64.7,0c1.9,0,1.9-3,0-3c-21.6,0-43.2,0-64.7,0C222,626.6,222,629.6,224,629.6
				L224,629.6z"/>
		</g>
	</g>
	<g>
		<g>
			<path class="st0" d="M226.4,627.5c11.4-18.8,23.6-37.1,36.4-54.9c-0.9,0-1.7,0-2.6,0c10.6,17.9,19.9,36.6,27.7,55.9
				c0.7,1.8,3.6,1,2.9-0.8c-7.9-19.5-17.3-38.4-28-56.6c-0.6-1-1.9-0.9-2.6,0c-12.8,17.8-25,36.1-36.4,54.9
				C222.8,627.7,225.4,629.2,226.4,627.5L226.4,627.5z"/>
		</g>
	</g>
	<g>
		<g>
			<path class="st0" d="M227,659.4c20.2,0,40.5,0,60.7,0c1.9,0,1.9-3,0-3c-20.2,0-40.5,0-60.7,0C225.1,656.4,225.1,659.4,227,659.4
				L227,659.4z"/>
		</g>
	</g>
	<g>
		<g>
			<path class="st0" d="M226.9,659.5c8.1,17.8,17.6,34.8,28.6,50.9c0.7,1,1.9,0.9,2.6,0c11.6-15.2,21.6-31.6,30-48.8
				c0.8-1.7-1.8-3.3-2.6-1.5c-8.3,17.3-18.3,33.6-30,48.8c0.9,0,1.7,0,2.6,0c-11-16.1-20.5-33.1-28.6-50.9
				C228.7,656.3,226.2,657.8,226.9,659.5L226.9,659.5z"/>
		</g>
	</g>
	<g>
		<g>
			<path class="st0" d="M221.4,793.4c22.9,0,45.7,0,68.6,0c1.9,0,1.9-3,0-3c-22.9,0-45.7,0-68.6,0
				C219.5,790.4,219.5,793.4,221.4,793.4L221.4,793.4z"/>
		</g>
	</g>
	<g>
		<g>
			<path class="st0" d="M223.9,791.3c12.1-18.8,25-37.1,38.6-54.9c-0.9,0-1.7,0-2.6,0c11.3,18,21.1,36.7,29.5,56.2
				c0.8,1.8,3.3,0.2,2.6-1.5c-8.4-19.5-18.2-38.3-29.5-56.2c-0.6-1-1.9-0.9-2.6,0c-13.6,17.8-26.4,36.1-38.6,54.9
				C220.3,791.4,222.9,793,223.9,791.3L223.9,791.3z"/>
		</g>
	</g>
	<g>
		<g>
			<path class="st0" d="M221.1,895.2c22.9,0,45.7,0,68.6,0c1.9,0,1.9-3,0-3c-22.9,0-45.7,0-68.6,0
				C219.1,892.2,219.1,895.2,221.1,895.2L221.1,895.2z"/>
		</g>
	</g>
	<g>
		<g>
			<path class="st0" d="M223.6,893.1c12.1-18.8,25-37.1,38.6-54.9c-0.9,0-1.7,0-2.6,0c11.3,18,21.1,36.7,29.5,56.2
				c0.8,1.8,3.3,0.2,2.6-1.5c-8.4-19.5-18.2-38.3-29.5-56.2c-0.6-1-1.9-0.9-2.6,0c-13.6,17.8-26.4,36.1-38.6,54.9
				C219.9,893.2,222.5,894.7,223.6,893.1L223.6,893.1z"/>
		</g>
	</g>
	<g>
		<g>
			<path class="st0" d="M307.1,597.9c9.6-5.9,19.7,1.9,29,4.6c9,2.6,17.2-0.5,25.8-3c11.2-3.2,20.7,0,31.6,2.3
				c10.1,2.2,20.3,3,30.6,2.6c1.9-0.1,1.9-3.1,0-3c-11.6,0.4-23-0.8-34.2-3.5c-10-2.5-18.7-4.1-28.8-1.3c-5.1,1.5-10.2,3.5-15.6,3.9
				c-6,0.5-11.4-1.8-16.8-4.1c-7.4-3.1-15.7-5.6-23.1-1.1C303.9,596.3,305.4,598.9,307.1,597.9L307.1,597.9z"/>
		</g>
	</g>
	<g>
		<g>
			<path class="st0" d="M447.8,602.2c3.7,0,7.3,0,11,0c1.9,0,1.9-3,0-3c-3.7,0-7.3,0-11,0C445.9,599.2,445.9,602.2,447.8,602.2
				L447.8,602.2z"/>
		</g>
	</g>
	<g>
		<g>
			<path class="st0" d="M383.9,619.4c14.3-6.5,29.6,0.6,44.2,1.9c7,0.6,13.1-0.6,19.6-2.9c6.5-2.3,15.6-5.5,20.6,1.3
				c1.1,1.5,3.7,0,2.6-1.5c-3.3-4.5-8.6-6.1-14-5.5c-8.8,0.9-16,5.9-25.2,5.8c-16.7-0.2-33-9.1-49.4-1.7
				C380.6,617.6,382.1,620.2,383.9,619.4L383.9,619.4z"/>
		</g>
	</g>
	<g>
		<g>
			<path class="st0" d="M307.2,682.6c5.8-4.4,12.6-7,19.9-7c7.2,0,13.8,2.8,20.3,5.6c11.4,4.8,21.7,6.8,33.7,3
				c11.6-3.6,22-10.2,33.9-12.8c15.3-3.3,30.3,2.7,44.2,8.6c1.8,0.7,2.6-2.2,0.8-2.9c-13-5.4-26.9-11.1-41.2-9.3
				c-13.2,1.6-24.6,9-37,13.1c-6.8,2.3-13.8,3.4-20.9,1.9c-6.9-1.5-13.2-4.9-19.7-7.3c-12.2-4.5-25-3.4-35.5,4.6
				C304.2,681.2,305.7,683.8,307.2,682.6L307.2,682.6z"/>
		</g>
	</g>
	<g>
		<g>
			<path class="st0" d="M408.1,696.8c8.2-4,17.3-5.6,26.4-4.2c8,1.2,15.3,4.8,23.1,7c15.9,4.5,32.6,2,48.4-1.5
				c1.9-0.4,1.1-3.3-0.8-2.9c-9.6,2.1-19.3,3.9-29.1,3.8c-9.1,0-17.4-2.1-25.9-5.1c-14.9-5.2-28.9-6.8-43.5,0.3
				C404.9,695,406.4,697.6,408.1,696.8L408.1,696.8z"/>
		</g>
	</g>
	<g>
		<g>
			<path class="st0" d="M313.5,759.3c9.6-15,30.1-4.1,42.3,0.4c7,2.5,14,3.8,21.4,2.3c6.8-1.4,13.1-4.8,19.3-7.9
				c7.3-3.6,14.7-6.5,23-6.5c8,0,15.8,2.1,23.4,4.6c13.9,4.4,27.6,10.2,42.5,9.2c1.9-0.1,1.9-3.1,0-3c-16.7,1.1-31.9-6.5-47.6-10.9
				c-7.4-2-15.1-3.4-22.7-2.6c-7.1,0.7-13.6,3.6-20,6.7c-7.7,3.7-15.6,8.1-24.3,8.2c-9.4,0.1-17.9-4.7-26.4-7.9
				c-11-4.1-26-5.3-33.2,6C309.9,759.4,312.5,760.9,313.5,759.3L313.5,759.3z"/>
		</g>
	</g>
	<g>
		<g>
			<path class="st0" d="M420.5,776.7c9.8-2.3,19.8-4.6,29.9-4.7c10-0.1,18.9,2.7,28.1,6.1c16.7,6,33.3,8,50.6,3.6
				c1.9-0.5,1.1-3.4-0.8-2.9c-9.8,2.5-19.9,3.1-29.9,1.7c-9-1.3-17.3-4.8-25.9-7.7c-17.8-5.9-35-3.1-52.9,1
				C417.9,774.2,418.7,777.1,420.5,776.7L420.5,776.7z"/>
		</g>
	</g>
	<g>
		<g>
			<path class="st0" d="M306.4,865.2c6.3-6.1,15.1-9.1,23.8-7.5c7.2,1.4,13.4,5.6,20.4,7.6c13.9,3.9,27.4-2.2,40-7.5
				c15.5-6.5,30.9-9.4,47.8-8c17.3,1.4,34.1,6.1,50.8,10.9c1.9,0.5,2.7-2.4,0.8-2.9c-16.9-4.9-34-9.6-51.6-11
				c-17.1-1.4-32.8,1.6-48.6,8.1c-7.5,3.1-15,6.5-23.1,8c-9.5,1.7-17.3-1-25.9-4.7c-12.8-5.5-26.1-5.3-36.5,4.9
				C302.9,864.5,305,866.6,306.4,865.2L306.4,865.2z"/>
		</g>
	</g>
	<g>
		<g>
			<path class="st0" d="M430.8,876.9c19.7-9.9,40.4,2.6,59.3,8.4c18.7,5.7,38.7,5.5,57.3-0.2c1.8-0.6,1.1-3.5-0.8-2.9
				c-21.5,6.6-43.3,5-64.2-2.8c-16.9-6.3-35.6-14-53.1-5.2C427.5,875.2,429,877.7,430.8,876.9L430.8,876.9z"/>
		</g>
	</g>
	<g>
		<g>
			<path class="st0" d="M629.9,161.6c67,0,134.1,0,201.1,0c1.9,0,1.9-3,0-3c-67,0-134.1,0-201.1,0C628,158.6,628,161.6,629.9,161.6
				L629.9,161.6z"/>
		</g>
	</g>
	<g>
		<g>
			<path class="st0" d="M700.7,190.7c53.1,0,106.2,0,159.4,0c1.9,0,1.9-3,0-3c-53.1,0-106.2,0-159.4,0
				C698.8,187.7,698.8,190.7,700.7,190.7L700.7,190.7z"/>
		</g>
	</g>
	<g>
		<g>
			<path class="st0" d="M810.4,914.2c-12.9,22.8-25.9,45.6-38.8,68.4c-1,1.7,1.6,3.2,2.6,1.5c12.9-22.8,25.9-45.6,38.8-68.4
				C813.9,914,811.3,912.5,810.4,914.2L810.4,914.2z"/>
		</g>
	</g>
	<g>
		<g>
			<path class="st0" d="M811.1,918.7c9.1,22.2,18.2,44.3,27.3,66.5c0.7,1.8,3.6,1,2.9-0.8c-9.1-22.2-18.2-44.3-27.3-66.5
				C813.2,916.1,810.3,916.9,811.1,918.7L811.1,918.7z"/>
		</g>
	</g>
	<g>
		<g>
			<path class="st0" d="M772.8,988.3c21.6-0.6,43.2-0.5,64.8,0.5c1.9,0.1,1.9-2.9,0-3c-21.6-1-43.2-1.2-64.8-0.5
				C770.8,985.4,770.8,988.4,772.8,988.3L772.8,988.3z"/>
		</g>
	</g>
	<g>
		<g>
			<path class="st0" d="M862.9,954.5c14.8-0.8,29.3,2.1,44,3c14.1,0.9,26.4-1.6,39.6-6.4c6.6-2.4,13.2-4.9,20.2-5.7
				c7-0.8,13.9,0.7,20.6,2.5c11.3,3.1,23.1,7.3,34.5,2.6c1.8-0.7,1-3.6-0.8-2.9c-12.6,5.1-25.4-1-37.7-3.8c-12.8-3-23.9-0.6-36,3.8
				c-6.3,2.3-12.5,4.7-19.1,5.9c-7.3,1.4-14.8,1.4-22.2,0.9c-14.4-1-28.6-3.7-43.1-2.9C861,951.6,861,954.6,862.9,954.5L862.9,954.5
				z"/>
		</g>
	</g>
	<g>
		<g>
			<path class="st0" d="M937,982.3c31.5-12.6,65.3,7.9,97.3-2.2c1.8-0.6,1.1-3.5-0.8-2.9c-32,10-65.7-10.5-97.3,2.2
				C934.4,980.1,935.2,983,937,982.3L937,982.3z"/>
		</g>
	</g>
	<g>
		<g>
			<path class="st0" d="M1005.8,248.5c-15.4,19.8-28.9,40.9-40.4,63.2c-0.9,1.7,1.7,3.2,2.6,1.5c11.4-22.1,24.7-43,39.9-62.6
				C1009.1,249.1,1007,247,1005.8,248.5L1005.8,248.5z"/>
		</g>
	</g>
	<g>
		<g>
			<path class="st0" d="M1007.2,250.7c14.4,19.9,27.8,40.5,40.3,61.6c1,1.7,3.6,0.2,2.6-1.5c-12.5-21.2-25.9-41.7-40.3-61.6
				C1008.6,247.6,1006,249.1,1007.2,250.7L1007.2,250.7z"/>
		</g>
	</g>
	<g>
		<g>
			<path class="st0" d="M967,315.9c26.9,1.1,53.8,0.5,80.7-1.8c1.9-0.2,1.9-3.2,0-3c-26.8,2.4-53.8,3-80.7,1.8
				C965,312.8,965,315.8,967,315.9L967,315.9z"/>
		</g>
	</g>
	<g>
		<g>
			<path class="st0" d="M439.1,998.7c32.7,0,65.4,0,98,0c1.9,0,1.9-3,0-3c-32.7,0-65.4,0-98,0C437.2,995.7,437.2,998.7,439.1,998.7
				L439.1,998.7z"/>
		</g>
	</g>
	<g>
		<g>
			<path class="st0" d="M436.5,1000.3c9.4,12.6,18.9,25.2,28.3,37.8c4.7,6.3,9.4,12.6,14.2,18.9c2.2,3,5.9,10.6,10.6,9.5
				c1.5-0.4,2.3-1.5,3.1-2.8c2-2.9,3.6-6.3,5.5-9.3c3.8-6.2,7.7-12.3,11.8-18.2c8.4-12.3,17.6-24.1,27.4-35.4
				c1.3-1.5-0.9-3.6-2.1-2.1c-16.4,19-31.1,39.5-43.8,61.3c-1,1.7-1.5,3.9-4.5,2.7c-1.3-0.5-2.9-3.7-3.7-4.8
				c-2.2-2.9-4.3-5.8-6.5-8.7c-4.1-5.5-8.3-11-12.4-16.5c-8.5-11.3-16.9-22.6-25.4-33.9C438,997.3,435.4,998.8,436.5,1000.3
				L436.5,1000.3z"/>
		</g>
	</g>
	<g>
		<g>
			<path class="st0" d="M714.5,663.2c-11.2,20-22.4,39.9-33.6,59.9c-0.9,1.7,1.6,3.2,2.6,1.5c11.2-20,22.4-39.9,33.6-59.9
				C718,663,715.5,661.5,714.5,663.2L714.5,663.2z"/>
		</g>
	</g>
	<g>
		<g>
			<path class="st0" d="M715.3,666.5c12.4,19,23.1,39,32.1,59.9c0.8,1.8,3.3,0.2,2.6-1.5c-8.9-20.9-19.7-40.9-32.1-59.9
				C716.8,663.4,714.2,664.9,715.3,666.5L715.3,666.5z"/>
		</g>
	</g>
	<g>
		<g>
			<path class="st0" d="M691.6,727.4c18.2,0,36.5,0,54.7,0c1.9,0,1.9-3,0-3c-18.2,0-36.5,0-54.7,0
				C689.7,724.4,689.7,727.4,691.6,727.4L691.6,727.4z"/>
		</g>
	</g>
	<g>
		<g>
			<path class="st1" d="M520.2,121.5c6-11.7,23.1-1.4,32,0.1c4.4,0.7,9.1,0.6,12.8-2.1c2.2-1.6,3.3-4,5.1-5.9
				c3.1-3.3,7.1-3.8,11.4-2.8c10.6,2.4,20.4,15.1,32.1,10c6-2.6,9.6-7,16.6-7.5c6.9-0.5,13.5,2.1,18.2,7.1c1.3,1.4,3.5-0.7,2.1-2.1
				c-7.8-8.2-20.9-10.6-30.9-4.9c-3.4,1.9-6,4.8-10.1,5.4c-4.7,0.7-9.1-1.6-13-3.8c-5.6-3.2-10.9-7-17.6-7.6
				c-5.7-0.5-9.3,2-12.7,6.3c-5.9,7.6-13.8,5.6-21.8,2.8c-8.5-3-21.7-6.6-26.9,3.6C516.7,121.7,519.3,123.2,520.2,121.5L520.2,121.5
				z"/>
		</g>
	</g>
	<g>
		<g>
			<path class="st1" d="M126.9,512.6c12.3-6.8,20.7,20.3,34.2,12.5c5.3-3.1,4.5-10.7,9.9-13.7c5.8-3.2,13.8-0.2,19.2,2.5
				c10.1,5.1,22.2,11,31,0.5c5.3-6.4,9.4-15.4,18.8-8.7c5.8,4.1,11.6,6.6,18.8,7.4c1.9,0.2,1.9-2.8,0-3c-4.7-0.5-9.2-1.9-13.3-4.3
				c-2.7-1.6-5.1-4.1-8.1-5.2c-5.6-2.1-10.6,1.5-14,5.7c-5.4,6.6-8.9,13-18.8,10.7c-6.9-1.6-12.6-6.2-19.4-8.3
				c-4.6-1.5-10-2.3-14.6-0.4c-5.7,2.4-5.8,7.3-8.8,11.9c-6.2,9.5-16.7-3.9-21.9-7.7c-4.4-3.3-9.4-5.2-14.5-2.4
				C123.7,510.9,125.2,513.5,126.9,512.6L126.9,512.6z"/>
		</g>
	</g>
	<g>
		<g>
			<path class="st1" d="M942.1,528.2c6.4-13,24.8,3.6,34,3.9c9.9,0.3,17-8,24.6-13.1c5.8-3.9,11.7-5.2,18.6-3.1
				c6.1,1.9,11.4,5.6,17.5,7.5c7.9,2.5,18.1,2,22.4-6c0.9-1.7-1.7-3.2-2.6-1.5c-7,13-24.4,1.9-33.5-1.7c-10.9-4.3-19.2-1.4-28.1,5.4
				c-4.2,3.2-8.3,7-13.4,8.7c-7.4,2.6-13.6-1.5-20-4.6c-7-3.4-18-5.4-22.2,3.1C938.7,528.4,941.3,529.9,942.1,528.2L942.1,528.2z"/>
		</g>
	</g>
	<g>
		<g>
			<path class="st1" d="M635.4,1086.2c3.8-7.3,12.4-8.6,19.7-6.4c6.5,2,11.5,7.1,18,8.7c5.1,1.3,8.3-1,11.8-4.2
				c6.3-5.8,13.7-4.4,21.2-1.7c8.8,3.2,20.4,9.1,29.1,2.3c3.4-2.7,4.9-6.2,10.3-5.1c3.4,0.7,6.8,1.9,10.1,2.9
				c7.9,2.3,15.8,4.6,23.7,6.9c1.9,0.5,2.7-2.4,0.8-2.9c-8.5-2.5-17-4.9-25.5-7.4c-5.2-1.5-12.2-5-17.1-0.9
				c-2.8,2.3-4.2,5.1-7.9,6.1c-3.7,1-7.8,0.3-11.4-0.7c-6.4-1.7-12.2-5.1-18.8-6.3c-5-0.9-10.1-0.4-14.2,2.7
				c-4.1,3.1-6.5,7.1-12.6,5c-3.5-1.2-6.4-3.6-9.7-5.3c-9.8-5.2-24-6.6-29.9,4.8C631.9,1086.4,634.5,1087.9,635.4,1086.2
				L635.4,1086.2z"/>
		</g>
	</g>
	<g>
		<g>
			<path class="st2" d="M722.2,1065.5c4.1-5.4,9.1-10.6,16.5-8.3c4.6,1.4,8.5,4.8,12.6,7.2c8,4.6,14.8,3.6,23,0.2
				c5.7-2.4,11-4.6,17.2-3c5.6,1.5,10.6,4.5,16.3,5.7c10.9,2.4,22.2,1.3,32.5-2.8c1.8-0.7,1-3.6-0.8-2.9c-12.6,5-26.4,5.3-39.1,0.3
				c-5-2-9.7-4.5-15.2-4c-5.2,0.5-9.9,3.1-14.8,5c-6.1,2.3-11.3,2.4-17.1-0.8c-4.1-2.2-7.7-5.2-12-7.1c-9.5-4-16.2,1.7-21.8,9
				C718.4,1065.5,721.1,1067,722.2,1065.5L722.2,1065.5z"/>
		</g>
	</g>
	<g>
		<g>
			<path class="st2" d="M212.8,477.2c12.5-9.6,22.4,7.8,34.1,8.9c3.5,0.3,6-1.7,8.1-4.3c4.2-5.3,8-8.4,15.2-7.9
				c6.6,0.5,12.5,3.9,18.5,6.6c3.8,1.7,7.9,3.6,11.9,1.6c2.2-1.1,3.9-3.2,6-4.5c2.7-1.7,5.8-2.9,8.9-3.5c6.3-1.2,12.7,0.1,18.1,3.4
				c1.7,1,3.2-1.6,1.5-2.6c-8.7-5.3-19.9-5.7-28.9-0.7c-2.8,1.6-6.2,5.6-9.4,5.8c-3.6,0.2-7.6-2.5-10.7-4c-5.1-2.4-10.3-4.8-16-5.1
				c-4.5-0.3-9.3,0.7-12.9,3.6c-1.6,1.3-2.7,3-4,4.6c-1.8,2.4-3.2,4.6-7.1,3.9c-1.7-0.3-4-1.8-5.5-2.7c-8.6-5.1-19.5-13.2-29.3-5.7
				C209.8,475.8,211.3,478.4,212.8,477.2L212.8,477.2z"/>
		</g>
	</g>
	<g>
		<g>
			<path class="st2" d="M912.2,501.4c1.8-9.6,15.4,1.3,19.7,2.6c6,1.7,12.1-0.1,17.6-2.3c7.1-2.9,14-7,21.8-7.2
				c9.2-0.3,17.9,3.7,26,7.6c1.7,0.8,3.3-1.8,1.5-2.6c-8.4-3.9-17.2-8.1-26.6-8c-9,0.1-16.7,4.8-24.9,7.9c-4.4,1.7-9.2,3.1-13.9,1.9
				c-4.2-1.1-7.4-4.1-11.4-5.7c-4.8-1.9-11.6-0.8-12.7,5.1C908.9,502.5,911.8,503.3,912.2,501.4L912.2,501.4z"/>
		</g>
	</g>
	<g>
		<g>
			<path class="st2" d="M612.6,292.7c8.2-13.7,28.2,4.4,38.4,5.7c6.5,0.8,11-2.2,15.6-6.3c6.3-5.7,11.5-6.8,19.6-4.5
				c5.4,1.6,10.6,4,16.2,4.4c6.5,0.5,10.3-2.9,15.6-6.1c12.6-7.7,26,6.5,39.3,5.1c1.9-0.2,1.9-3.2,0-3c-13,1.4-25.3-11.8-38.2-6.1
				c-3.2,1.4-5.7,4-8.8,5.7c-4,2.1-8.3,1.7-12.5,0.6c-5.9-1.5-11.4-4.3-17.5-4.8c-6-0.5-10.4,1.8-14.8,5.7c-3.9,3.5-7.4,6.9-13,6.6
				c-4.6-0.2-9-2.6-13-4.7c-8.7-4.5-22.9-10.8-29.6,0.3C609,292.8,611.6,294.3,612.6,292.7L612.6,292.7z"/>
		</g>
	</g>
	<g>
		<g>
			<path class="st2" d="M716,796c1.5-7.3,9.6-9.1,16.1-8.4c7.9,0.9,14.5,6.2,21.6,9.3c5.4,2.3,11.1,3.5,16.9,2
				c6.3-1.6,11.6-5.6,17.2-8.8c7-4.1,14.1-6.4,21.6-2c5.2,3,9.3,7.6,15,9.7c7.5,2.9,15-0.1,22-3c7.2-3,16.8-6.5,23.3-0.1
				c1.4,1.4,3.5-0.8,2.1-2.1c-9-8.9-21.4-2.2-31.2,1.3c-8.3,3.1-14.9,2.2-21.9-2.9c-4.4-3.2-8.7-7-14.2-8.1
				c-10.9-2.2-19.8,6.4-28.8,10.9c-7.7,3.8-14.8,3.3-22.5-0.4c-5.5-2.6-10.6-6.2-16.5-7.9c-8.7-2.4-21.3-0.6-23.5,9.8
				C712.7,797.1,715.6,797.9,716,796L716,796z"/>
		</g>
	</g>
	<g>
		<g>
			<path class="st2" d="M1151.7,76.3c0.4-4.2,5.8-4.4,8.8-3.6c2.7,0.7,5.1,2.6,7.5,4c3.6,2.1,7.4,3.5,11.6,2.4
				c4.1-1.1,7.3-4.2,10.8-6.5c5.4-3.6,9.9-2.9,15.3,0.3c6.6,3.9,12.6,7.4,19.5,1.9c2.6-2.1,4.8-4.8,8.2-5.6c3.3-0.8,7,0,10.3,0.3
				c6.9,0.6,13.9,1.2,20.8,1.8c1.9,0.2,1.9-2.8,0-3c-7.6-0.7-15.1-1.3-22.7-2c-5.7-0.5-10.4-0.7-15.1,3.1c-2.8,2.2-5.3,5.4-9.2,5.4
				c-3,0-5.7-1.8-8.2-3.2c-3.8-2.2-7.7-4.9-12.3-4.8c-4.7,0.2-8.4,3.3-12,5.9c-2.5,1.8-5.2,3.7-8.4,3.8c-4,0.1-7.3-2.6-10.6-4.5
				c-5.6-3.2-16.5-4.6-17.4,4.3C1148.5,78.2,1151.5,78.2,1151.7,76.3L1151.7,76.3z"/>
		</g>
	</g>
</g>
<g id="arrow">
	<path class="st3" d="M395.6,271.6c74.5,132.8,149,265.7,223.5,398.5c48-64.2,96-128.3,144-192.5c42.2,100.5,84.4,201,126.5,301.6
		c54.3-27.8,108.6-55.6,162.9-83.5c-48.9,7.6-97.8,15.3-146.7,22.9c-37.6-113.5-75.3-227-112.9-340.4
		c-55.7,80.3-111.4,160.5-167.1,240.8C549.1,503.1,472.3,387.3,395.6,271.6z"/>
	<path class="st3" d="M333.3,151.2c15.7,97.5,31.5,195,47.2,292.6c-0.8-69.1-1.5-138.2-2.3-207.3c57.2,35.7,114.4,71.4,171.6,107.1
		C477.7,279.4,405.5,215.3,333.3,151.2z"/>
</g>
<g id="leg_right">
	<path class="st4" d="M1147.2,819.8c-0.7,6.7-1.5,15.9-2.4,26.9c-2.5,32.7-4.1,71.3-3.4,114.5c0.4,24.5,2.3,84.2,13.7,160.7
		c3.1,21,6.3,38.4,8.7,50.9c12.1,4.4,28.8,8.8,48.9,9.5c40.9,1.3,71.9-13.6,86.6-22c-3.9-18.2-8.6-43.1-12.2-72.8
		c-3.5-29.3-6.5-54.5-5.1-85.9c1.1-23.8,5.8-47.5,15.1-94c14.5-72.1,19.7-80.6,13.4-90.8C1302.3,802.9,1272.7,785.7,1147.2,819.8z"
		/>
	<path class="st5" d="M1260.2,872.8c-5.8,12.8-13.3,31.7-18.9,55.3c-3.9,16.2-10.1,48.4-5.5,119.2c2.2,33.7,7,78.5,18.1,130.9
		c15.2-6,30.4-12,45.6-18c-3.4-15.7-7.4-36.1-10.8-60.1c-2.7-18.7-6-42.4-7.1-73.4c-1.2-34.3,0.9-60.2,2.4-78.2
		c2.1-24.2,5.9-55.1,13.4-90.7C1284.9,862.8,1272.6,867.8,1260.2,872.8z"/>
	<g>
		<g>
			<path class="st6" d="M1145.7,819.8c-9,90.6-7.7,182.2,3.8,272.5c3.2,25.1,7.2,50.1,12,75c0.4,1.9,3.3,1.1,2.9-0.8
				c-17.1-89-24.1-179.8-20.9-270.4c0.9-25.5,2.7-50.9,5.2-76.3C1148.9,817.9,1145.9,817.9,1145.7,819.8L1145.7,819.8z"/>
		</g>
	</g>
	<g>
		<g>
			<path class="st6" d="M1287,902.8c-8.6,66.7-8.3,134.5,0.9,201.2c2.6,19,6,37.9,10.1,56.6c0.4,1.9,3.3,1.1,2.9-0.8
				c-14.3-65.8-19.8-133.4-16.1-200.7c1-18.8,2.8-37.6,5.2-56.3C1290.2,900.9,1287.2,900.9,1287,902.8L1287,902.8z"/>
		</g>
	</g>
</g>
<g id="leg_left">
	<path class="st4" d="M1399.1,825.4c1.7,2.5,1.8,3.4,7.3,22.6c5.6,19.5,11.7,38.9,17,58.5c9.4,34.4,22.4,69.5,33.8,100.6
		c13.6,36.9,32.3,83.4,57.1,136.5c-42,4.3-83.9,8.7-125.9,13c-35.1-50.2-55.7-86.9-68.3-112c-10.7-21.3-25.1-40.6-35.2-62.1
		c-2.7-5.8-10.8-23.3-26.1-37.3c-8.9-8.1-16.8-11.8-21.1-13.6c-6.4-2.6-12.1-3.8-16.2-4.3c0.7-12.2,3.3-31.7,13.4-52.9
		c5.3-11,18.1-37,45.8-53.7C1321.2,796.2,1381.3,798.9,1399.1,825.4z"/>
	<path class="st7" d="M1343.9,810.4c4.2,19.8,9.2,40.1,15,60.8c29.5,105,73.1,192.8,117.6,263.7c7.8-6.8,15.7-13.6,23.5-20.4
		c-11.2-26.3-21.3-51.2-30.3-74.7c-7.8-20.3-19.9-51.7-33.6-93.6c-10-30.5-16.8-53.6-23.5-77c-10-34.7-17.9-64.4-23.7-87.3
		C1373.9,791.5,1358.9,800.9,1343.9,810.4z"/>
	<g>
		<g>
			<path class="st6" d="M1401.5,835.9c20.1,74.6,44.3,148.1,72.7,220c7.9,19.9,16.1,39.7,24.5,59.4c0.8,1.8,3.3,0.2,2.6-1.5
				c-30.4-70.6-56.8-142.8-79.1-216.3c-6.3-20.7-12.2-41.5-17.8-62.4C1403.9,833.2,1401,834,1401.5,835.9L1401.5,835.9z"/>
		</g>
	</g>
	<g>
		<g>
			<path class="st6" d="M1228.9,931.3c16.4,1.9,28.9,13.4,38.5,26.2c10.2,13.6,18.1,28.8,26.4,43.5c19.1,33.7,37.8,67.6,57.8,100.8
				c11.4,18.9,23.2,37.5,35.6,55.6c1.1,1.6,3.7,0.1,2.6-1.5c-23.2-33.7-43.9-69-64.1-104.6c-10-17.5-19.8-35.1-29.7-52.6
				c-8.6-15.2-16.8-30.9-27.5-44.8c-10-12.9-22.8-23.6-39.5-25.6C1227,928,1227,931,1228.9,931.3L1228.9,931.3z"/>
		</g>
	</g>
</g>
<g id="torso">
	<path class="st2" d="M1187.2,431.1c12.1-8,30.7-18.7,55-26.5c16-5.2,93-30,162,10.8c12.2,7.2,28.4,19,44.2,38.3
		c-2,13.8-4.9,34.2-8.8,58.9c-7.3,46.3-13.2,78-19.6,113.9c-5.4,30-12.9,72.6-21.6,124.7c2.3,28.2,4.6,56.3,6.9,84.5
		c-18.1,12.5-49.3,30.2-91.3,36.3c-88.3,12.8-155-35.7-169.9-47.1c3.7-68,9.5-139.6,18.1-214.4
		C1169.3,548.1,1177.8,488.2,1187.2,431.1z"/>
</g>
<g id="hand_right">
	<path class="st4" d="M1195.6,427.7c-1.3,6.3-3.3,15.8-5.6,27.3c-8.2,40.6-12.3,61.3-14.7,81.7c-1.4,12.1-3,29.5-3.2,50.8
		c23.7-0.9,43,0.9,56.4,2.6c35.6,4.7,59.4,8.2,73.2,26.6c8.3,11,10.1,23.5,10.4,31.4c-7.5,4.1-17.7,9.2-30.1,14.2
		c-9.5,3.8-32.6,12.6-65.1,17.8c-20,3.2-37.6,5.9-60.4,2.4c-25.6-3.9-34.5-11.9-38.6-16.7c-7.2-8.3-9.3-17.6-9.9-20.3
		c-2-9.5-0.4-16.2,3.9-34.7c8-34.6,6.3-28.3,7.9-34.6c3.6-13.6,8-30.2,15.5-50.7c6-16.3,10.7-29.3,18.8-44.1
		C1161.3,467.8,1174.1,448.1,1195.6,427.7z"/>
	<path class="st8" d="M1164,464.7c-3.3,8.6-8.2,21.9-13.1,38.3c-14.6,49.3-15.2,79.5-15.2,87.9c-0.1,21.7,0,32.8,6.4,42.8
		c11.8,18.1,34.1,22.4,58,27c17.3,3.3,44.3,6.2,77.9,0.6c-9.8,4.8-22.9,10.3-38.8,14.5c-19.2,5.1-34.1,6.1-46.1,6.9
		c-26.9,1.7-40.4,2.6-56.1-4.4c-7.1-3.1-19.9-9-26.4-22.4c-2.3-4.9-4.2-11.5-3-27.4c1.5-20.3,6.3-34.7,11-49.3
		c13.7-43,9.7-36.1,16.3-53.7C1141,509.6,1150.1,488.5,1164,464.7z"/>
	<g>
		<g>
			<path class="st6" d="M1194.5,426.6c-22.4,18.7-38,43.7-49.7,70.1c-13.1,29.6-22.6,60.9-30,92.3c-3.8,16-8.5,32.9-8.9,49.4
				c-0.3,13.3,5.4,25,15.9,33.1c11.3,8.8,25.6,12,39.7,12.9c16.3,1.1,33,0.1,49.2-2c35.7-4.6,70.4-15.9,102.1-33.1
				c1.7-0.9,0.2-3.5-1.5-2.6c-27.1,14.7-56.4,25-86.7,30.5c-15.2,2.7-30.7,4.2-46.1,4.5c-15.3,0.2-31.4-0.2-45.5-6.9
				c-13.1-6.2-23.3-18-23.9-32.9c-0.4-8.4,1.4-16.7,3-24.9c1.5-7.9,3.1-15.7,4.9-23.5c6.8-29.7,15.6-59.3,27.2-87.5
				c12-29.1,28.2-57,52.6-77.4C1198.1,427.5,1196,425.4,1194.5,426.6L1194.5,426.6z"/>
		</g>
	</g>
	<g>
		<g>
			<path class="st6" d="M1135.3,600.1c37.3-13.5,78.2-14.6,116.1-2.9c1.8,0.6,2.6-2.3,0.8-2.9c-38.4-11.8-79.9-10.8-117.7,2.9
				C1132.7,597.8,1133.4,600.7,1135.3,600.1L1135.3,600.1z"/>
		</g>
	</g>
	<g>
		<g>
			<path class="st6" d="M1195.8,428.5c-15.6,51.6-24.2,105.1-25.3,159c0,1.9,3,1.9,3,0c1.1-53.6,9.6-106.9,25.2-158.2
				C1199.2,427.4,1196.4,426.6,1195.8,428.5L1195.8,428.5z"/>
		</g>
	</g>
</g>
<g id="hand_left">
	<path class="st4" d="M1431.2,442.1c-2.6,5.8-5.8,13.6-9.3,23c-2.1,5.8-9.5,26.1-15.8,54.3c-4.5,20-9.3,47.8-11,82.1
		c-6.3-2.7-15.8-6.7-27.2-11.6c-59.5-25.2-69.4-28.6-77.9-31.2c-30.6-9.4-48.9-10.9-62.2-10.7c-16.6,0.2-28,3-38.2,9.5
		c-7.8,5-13,11-16.2,15.3c-0.5,4.9-1,9.8-1.5,14.8c8.7-0.1,22.1,1,36.7,7.3c9.5,4.1,16.3,9.1,25,16.2c21.3,17.3,32.5,29.7,41.5,38.2
		c7.8,7.3,34.5,31,74.4,41.7c26.9,7.2,47.4,5.2,68.9,3.2c11.6-1.1,19.4-2.8,27-8.1c2.4-1.7,12.2-8.9,20.5-32.7
		c4.4-12.5,6.5-24.5,7.9-44.3c1.2-17.3,2.8-41.5-1.1-74c-1.1-9.4-5.2-26.1-13.5-59.5c-1.3-5.2-3.6-13.9-10.8-21.9
		C1442.5,447.2,1435.7,443.9,1431.2,442.1z"/>
	<path class="st9" d="M1450.3,457.3c1.3,14.1,2.7,33.4,2.9,56.4c0.1,19.8,0.2,41.1-3.6,67.3c-5.8,40.6-8.8,61-24.5,74
		c-22.3,18.4-54.5,12.3-62.7,10.7c-21-4-24.7-11.9-69.4-41.3c-56-36.9-79.2-43.6-101.5-41.3c-8.4,0.9-15.1,2.9-19.5,4.4
		c8.9,0,22.3,1.1,36.7,7.3c15,6.4,24.1,15.3,31,21.7c17.6,16.6,39.6,37.3,61,51.2c4.5,2.9,37.3,23.7,78,28c18.9,2,33.4-0.3,47-2.4
		c6.2-1,10.6-1.9,15.6-4.6c11.6-6.3,17-16.9,21.2-25.7c5.8-11.9,7.5-21.8,9.6-35.1c2.2-13.6,2.5-23.7,2.9-36.7
		c0.3-8.7,0.7-23.4-0.8-42.7c-1.1-15.2-2.1-28.3-6.2-44.8C1465.1,492,1460,475.7,1450.3,457.3z"/>
	<g>
		<g>
			<path class="st6" d="M1429.9,441.4c-22,50.2-33.7,104.4-34.3,159.2c0,1.9,3,1.9,3,0c0.5-54.2,12-108,33.8-157.6
				C1433.3,441.2,1430.7,439.6,1429.9,441.4L1429.9,441.4z"/>
		</g>
	</g>
	<g>
		<g>
			<path class="st6" d="M1174.7,573.5c9.8-16.1,29.4-22,47.2-23.6c19.5-1.8,39.1,1.7,57.8,7.2c18.8,5.5,36.9,13.1,54.9,20.6
				c20,8.3,39.8,16.7,59.7,25.2c1.8,0.8,3.3-1.8,1.5-2.6c-31.7-13.6-63.3-27.7-95.7-39.5c-29.5-10.8-62-18.9-93.3-11.4
				c-13.8,3.3-27.1,10.3-34.7,22.7C1171.1,573.7,1173.7,575.2,1174.7,573.5L1174.7,573.5z"/>
		</g>
	</g>
	<g>
		<g>
			<path class="st6" d="M1172,589c19.8,1.1,40.1,5.7,55.7,18.6c12.7,10.6,24.3,22.7,36.5,33.8c26.8,24.4,60.2,46.6,96.5,53.5
				c24.5,4.7,49.8,3.4,73.9-2.8c1.9-0.5,1.1-3.4-0.8-2.9c-22.3,5.7-45.8,7.3-68.6,3.5c-13.6-2.3-25.9-6.7-38.3-12.5
				c-23.2-10.9-43.9-25.5-62.7-42.9c-11.6-10.7-22.6-22.2-34.8-32.2c-16.1-13.2-36.9-18-57.4-19.2
				C1170.1,585.9,1170.1,588.9,1172,589L1172,589z"/>
		</g>
	</g>
	<g>
		<g>
			<path class="st6" d="M1432.1,443.5c16.5,5,24.1,26.8,29,41.4c5.7,17,8.8,34.7,10.4,52.5c1.6,17.8,2,35.8,1.6,53.6
				c-0.4,19-2,38.1-7.1,56.4c-4.6,16.9-13,35.8-30.7,42c-1.8,0.6-1,3.5,0.8,2.9c14.5-5.1,23.4-18.1,28.9-31.9
				c7.2-18.4,9.8-38.6,10.8-58.3c1-20.4,0.6-41-1-61.3c-1.5-19-4.5-37.9-10.5-56c-5.3-16-13.4-38.9-31.4-44.3
				C1431.1,440.1,1430.3,443,1432.1,443.5L1432.1,443.5z"/>
		</g>
	</g>
</g>
<g id="head">
	<path class="st4" d="M1212.2,203.9c-1.7,3.6-4.6,11.4-6.7,18.2c-3.4,10.6-7.3,25.6-9.2,43.9c-0.9,9-2.4,24-0.2,43.6
		c1.5,13,2.8,24.3,8.5,37.3c3.7,8.4,12.4,24.3,31.7,38.5c7.2,0.4,16,0.3,25.8-1.1c7-1,13.3-2.5,18.7-4c0.9,7.3,2.2,15.2,4.1,23.7
		c1.9,8.2,4,15.7,6.2,22.5c5.9,1.3,14.4,2.4,24.3,0.9c22.2-3.4,36.2-17.4,40.9-22.6c-2.2-12.4-3.7-23.1-4.7-31.5
		c-2.5-21.6-1.7-26.9-0.3-31.2c3.1-9.5,8.7-13.5,18.6-23.4c19.2-19.1,30.5-30.4,34.6-44.9c5.3-18.5-2.6-36-10.2-52.8
		c-3.9-8.5-12.1-26.7-27.8-39.8C1319.4,142.3,1228.7,168.7,1212.2,203.9z"/>
	<path class="st10" d="M1351.7,214.2c-0.7,10.7-2.6,25.6-8,42.6c-2.1,6.5-9.3,28.1-30.1,56.8c-13.3,18.3-37,46.4-75.8,72.8
		c9,0.3,20.4-0.4,33.2-4c31.2-8.7,50.4-28.9,58.5-38.7c2.2,25.2,4.4,50.5,6.6,75.7c6.2-4,12.4-8,18.5-11.9c-1-6.3-2.3-15.8-3-27.4
		c-1.8-29-2.7-43.5,5.7-53.4c9.3-10.9,18.9-4.3,30.7-16.5c9.8-10.2,11.4-23.4,13.1-36.9c1.9-15.2,3.4-27.4-3.4-38.6
		C1385.1,213.8,1354.5,214.1,1351.7,214.2z"/>
	<path class="st1" d="M1205.4,222.1c-3.9-6.6-10.9-21.1-6.4-35.7c2.5-8,8.9-17.3,36.5-30.2c44.2-20.6,62.8-13.1,91.2-30.2
		c10.3-6.2,24.8-17.4,38.2-38.8c-1.3,10.1-2.7,20.1-4,30.2c6.3,0.8,14.6,1,23.9-1.1c26.1-5.9,40.7-25.6,45-31.9
		c1.2,8.2,2.1,21.5-1.7,37c-2.8,11.3-7.2,20.1-10.8,26.2c7.8-5.5,15.6-11,23.4-16.5c0,7.3-0.4,15.1-1.1,23.4
		c-1.6,16.4-4.6,30.9-8,43.3c5.7-7.4,11.4-14.8,17.1-22.2c-0.6,5.7-1.5,13.9-2.8,23.9c-4.8,35.3-7.2,52.9-14.8,70.1
		c-5.6,12.7-13.1,29.6-30.2,43.3c-16.2,12.9-29.3,13.7-39.9,29.1c-7,10.2-9,21.1-9.6,28.5c0.7-19.6,1.5-39.1,2.2-58.7
		c2.5,1.9,7.6,5.3,13.7,4.6c9.4-1.2,14.2-11.5,17.7-18.8c1.5-3.1,12.6-26.9,1.7-39.3c-1.2-1.4-5.6-5.9-11.9-5.9
		c-9.2,0-14.6,9.3-14.9,9.9c-4.4-13.6-12.9-34.3-29.8-55.4c-10.8-13.5-17.6-22-30.1-27.2c-25.9-10.8-56.5,0.8-74.8,16.7
		C1214.7,205.3,1208.7,215.4,1205.4,222.1z"/>
	<g>
		<g>
			<path class="st6" d="M1210.7,203.5c-13.6,32.8-19.5,68.7-16.4,104.2c2.7,30.5,13.4,62.6,41.1,79c1.7,1,3.2-1.6,1.5-2.6
				c-28.5-16.9-38.1-50.7-40.1-81.9c-2.1-33.4,3.8-67,16.7-97.9C1214.3,202.6,1211.4,201.8,1210.7,203.5L1210.7,203.5z"/>
		</g>
	</g>
	<g>
		<g>
			<path class="st6" d="M1237.9,387.9c51.5,0.5,98.3-30.5,118.2-77.9c0.7-1.8-2.2-2.6-2.9-0.8c-19.3,46.2-65.3,76.2-115.3,75.7
				C1236,384.8,1236,387.8,1237.9,387.9L1237.9,387.9z"/>
		</g>
	</g>
	<g>
		<g>
			<path class="st6" d="M1365.9,256.9c7.8-7.5,18.2-0.5,21.2,8c2.7,7.8,1.3,16.7-0.4,24.6c-1.5,7.2-4.2,14.6-9.8,19.6
				c-5.2,4.7-17.1,9.4-21,0.5c-0.8-1.8-3.4-0.2-2.6,1.5c3.5,8.1,14.2,7.5,20.8,3.8c9.6-5.3,13.9-16,15.8-26.2
				c2-10.4,3.4-22.9-3.9-31.7c-5.6-6.8-15.6-8.5-22.2-2.2C1362.4,256.1,1364.5,258.2,1365.9,256.9L1365.9,256.9z"/>
		</g>
	</g>
	<g>
		<g>
			<path class="st6" d="M1354,311.4c-6.4,30.8-6.1,62.5,1,93.1c0.4,1.9,3.3,1.1,2.9-0.8c-7-30.1-7.3-61.3-1-91.5
				C1357.3,310.3,1354.4,309.5,1354,311.4L1354,311.4z"/>
		</g>
	</g>
	<g>
		<g>
			<path class="st6" d="M1279.2,380.3c1.1,8.6,2.6,17.1,4.5,25.6c1,4.3,2.1,8.6,3.4,12.8c0.8,2.9,1.3,7,3.4,9.3
				c0.7,0.7,1.9,0.5,2.4-0.3c0.1-0.1,0.1-0.2,0.2-0.3c0.4-0.7,0.1-1.6-0.5-2.1c-0.1,0-0.1-0.1-0.2-0.1c-1.6-1.1-3.1,1.5-1.5,2.6
				c0.1,0,0.1,0.1,0.2,0.1c-0.2-0.7-0.4-1.4-0.5-2.1c-0.1,0.1-0.1,0.2-0.2,0.3c0.8-0.1,1.6-0.2,2.4-0.3c-2-2.2-2.6-7.9-3.4-10.8
				c-1-3.7-1.9-7.3-2.8-11c-1.8-7.9-3.2-15.8-4.2-23.9C1282,378.4,1279,378.4,1279.2,380.3L1279.2,380.3z"/>
		</g>
	</g>
	<g>
		<g>
			<path class="st6" d="M1291.5,428.4c12.5,3.5,25.4,1.2,37.2-3.8c6-2.6,11.8-5.8,17.4-9.1c4.4-2.6,9.1-5.1,11.3-10
				c0.8-1.7-1.8-3.3-2.6-1.5c-2.2,4.8-7.4,7.2-11.8,9.8c-5,3-10.2,5.8-15.6,8c-11.2,4.7-23.4,7-35.3,3.7
				C1290.5,425,1289.7,427.9,1291.5,428.4L1291.5,428.4z"/>
		</g>
	</g>
	<g>
		<g>
			<path class="st6" d="M1245.4,226.9c-8,28.7-15.1,57.7-21.3,86.9c-0.3,1.4,1.4,2.6,2.5,1.5c7.5-7.5,14.7-15.4,21.4-23.6
				c1.2-1.5-0.9-3.6-2.1-2.1c-6.7,8.2-13.9,16.1-21.4,23.6c0.8,0.5,1.7,1,2.5,1.5c6.3-29.2,13.4-58.1,21.3-86.9
				C1248.9,225.9,1246,225.1,1245.4,226.9L1245.4,226.9z"/>
		</g>
	</g>
	<g>
		<g>
			<path class="st6" d="M1231.2,326.5c3.9,2.8,8.8,1.8,13.3,1.3c5-0.6,10-1.4,14.7-3.3c9.1-3.7,16.3-10.8,21-19.5
				c0.9-1.7-1.7-3.2-2.6-1.5c-3.9,7.3-9.7,13.5-17.2,17.2c-3.8,1.9-7.9,2.9-12,3.6c-4.6,0.7-11.6,2.5-15.6-0.3
				C1231.1,322.8,1229.6,325.4,1231.2,326.5L1231.2,326.5z"/>
		</g>
	</g>
	<g>
		<g>
			<path class="st6" d="M1208.4,243.2c1.2,6.3,3.5,14.1,11,15.1c7.9,1.1,13.2-5.8,16.2-12c0.8-1.7-1.7-3.3-2.6-1.5
				c-2.5,5.2-7.3,12.3-14.2,10.4c-5.3-1.5-6.6-8.1-7.5-12.8C1210.9,240.5,1208,241.3,1208.4,243.2L1208.4,243.2z"/>
		</g>
	</g>
	<g>
		<g>
			<path class="st6" d="M1217.3,214.4c2.2-5.3,6.6-9.7,12.3-11.2c7.1-1.9,10.2,2.9,12.2,8.8c0.6,1.8,3.5,1,2.9-0.8
				c-2.2-6.3-5.6-12.2-13.2-11.4c-7.9,0.9-14.2,6.7-17.1,13.8C1213.6,215.4,1216.5,216.1,1217.3,214.4L1217.3,214.4z"/>
		</g>
	</g>
	<g>
		<g>
			<path class="st6" d="M1276.4,208.4c3-5.8,8.7-10.3,15.5-10.4c7-0.1,13.1,4.4,13.6,11.7c0.1,1.9,3.1,1.9,3,0
				c-0.5-7.7-6.3-13.6-13.9-14.5c-8.8-1.1-16.8,4.2-20.7,11.8C1272.9,208.6,1275.5,210.1,1276.4,208.4L1276.4,208.4z"/>
		</g>
	</g>
	<g>
		<g>
			<path class="st6" d="M1269.7,243.6c-1.8,9.2,5.2,17,14.3,17.7c5.1,0.4,10-1.4,14.1-4.4c2.7-2,7.1-5.3,6.3-9.1
				c-0.4-1.9-3.3-1.1-2.9,0.8c0.5,2-4.8,5.7-6.1,6.6c-2.9,1.9-6.3,3.2-9.8,3.2c-7.6,0-14.5-5.9-13-13.9
				C1272.9,242.5,1270,241.7,1269.7,243.6L1269.7,243.6z"/>
		</g>
	</g>
</g>
</svg>
